<mxfile host="app.diagrams.net" modified="2023-10-23T05:51:43.095Z" agent="Mozilla/5.0 (X11; Linux x86_64; Chromium GOST) AppleWebKit/537.36 (KHTML, like Gecko) Chrome/110.0.0.0 Safari/537.36" etag="_BIj51xHTwkSNHW8LPB6" version="22.0.6" type="github">
  <diagram name="Страница — 1" id="uNHvLHQPSVbSWbd0O0wI">
    <mxGraphModel dx="683" dy="360" grid="0" gridSize="10" guides="1" tooltips="1" connect="1" arrows="1" fold="1" page="0" pageScale="1" pageWidth="827" pageHeight="1169" math="0" shadow="0">
      <root>
        <mxCell id="0" />
        <mxCell id="1" parent="0" />
        <mxCell id="dCpth_l864fCatFrI4OX-4" style="edgeStyle=orthogonalEdgeStyle;rounded=0;orthogonalLoop=1;jettySize=auto;html=1;entryX=0.5;entryY=0;entryDx=0;entryDy=0;elbow=vertical;curved=1;dashed=1;fillColor=#1ba1e2;strokeColor=#4B70AF;exitX=0.5;exitY=1;exitDx=0;exitDy=0;" edge="1" parent="1" source="dCpth_l864fCatFrI4OX-1" target="dCpth_l864fCatFrI4OX-2">
          <mxGeometry relative="1" as="geometry" />
        </mxCell>
        <mxCell id="dCpth_l864fCatFrI4OX-1" value="Node js" style="text;html=1;strokeColor=none;fillColor=#d5e8d4;align=center;verticalAlign=middle;whiteSpace=wrap;rounded=1;" vertex="1" parent="1">
          <mxGeometry x="351" y="250" width="122" height="30" as="geometry" />
        </mxCell>
        <mxCell id="dCpth_l864fCatFrI4OX-2" value="Движок V8" style="text;html=1;strokeColor=none;fillColor=#fff2cc;align=center;verticalAlign=middle;whiteSpace=wrap;rounded=1;" vertex="1" parent="1">
          <mxGeometry x="220" y="329" width="122" height="30" as="geometry" />
        </mxCell>
        <mxCell id="dCpth_l864fCatFrI4OX-3" value="Libuv" style="text;html=1;strokeColor=none;fillColor=#fff2cc;align=center;verticalAlign=middle;whiteSpace=wrap;rounded=1;" vertex="1" parent="1">
          <mxGeometry x="491" y="336" width="122" height="30" as="geometry" />
        </mxCell>
        <mxCell id="dCpth_l864fCatFrI4OX-6" style="edgeStyle=orthogonalEdgeStyle;rounded=0;orthogonalLoop=1;jettySize=auto;html=1;entryX=0.5;entryY=0;entryDx=0;entryDy=0;elbow=vertical;curved=1;dashed=1;fillColor=#1ba1e2;strokeColor=#4B70AF;exitX=0.5;exitY=1;exitDx=0;exitDy=0;" edge="1" parent="1" source="dCpth_l864fCatFrI4OX-1" target="dCpth_l864fCatFrI4OX-3">
          <mxGeometry relative="1" as="geometry">
            <mxPoint x="422" y="290" as="sourcePoint" />
            <mxPoint x="291" y="339" as="targetPoint" />
          </mxGeometry>
        </mxCell>
        <mxCell id="dCpth_l864fCatFrI4OX-7" value="От Google (C++)" style="text;html=1;strokeColor=none;fillColor=#d5e8d4;align=center;verticalAlign=middle;whiteSpace=wrap;rounded=0;" vertex="1" parent="1">
          <mxGeometry x="91" y="333" width="122" height="22" as="geometry" />
        </mxCell>
        <mxCell id="dCpth_l864fCatFrI4OX-8" value="(C)" style="text;html=1;strokeColor=none;fillColor=#d5e8d4;align=center;verticalAlign=middle;whiteSpace=wrap;rounded=0;" vertex="1" parent="1">
          <mxGeometry x="619" y="340" width="44" height="22" as="geometry" />
        </mxCell>
      </root>
    </mxGraphModel>
  </diagram>
</mxfile>
